<svg width="138" height="71" viewBox="0 0 138 71" fill="none" xmlns="http://www.w3.org/2000/svg">
<path d="M35.496 70.056C30.568 70.056 25.928 69.16 21.576 67.368C17.288 65.576 13.544 63.112 10.344 59.976C7.144 56.776 4.616 53.064 2.76 48.84C0.968 44.552 0.0720001 39.944 0.0720001 35.016C0.0720001 30.088 1 25.512 2.856 21.288C4.712 17.064 7.272 13.384 10.536 10.248C13.864 7.04799 17.736 4.584 22.152 2.856C26.568 1.064 31.304 0.167999 36.36 0.167999C42.184 0.167999 47.464 1.224 52.2 3.336C57 5.448 60.968 8.36 64.104 12.072L53.832 22.344C51.656 19.528 49.096 17.416 46.152 16.008C43.208 14.6 39.88 13.896 36.168 13.896C32.2 13.896 28.648 14.792 25.512 16.584C22.376 18.312 19.912 20.776 18.12 23.976C16.392 27.112 15.528 30.792 15.528 35.016C15.528 39.24 16.392 42.952 18.12 46.152C19.848 49.352 22.216 51.848 25.224 53.64C28.232 55.432 31.688 56.328 35.592 56.328C39.56 56.328 42.92 55.592 45.672 54.12C48.488 52.584 50.632 50.408 52.104 47.592C53.64 44.712 54.408 41.224 54.408 37.128L64.392 43.848L34.152 43.368V30.6H69.768V32.808C69.768 40.936 68.296 47.784 65.352 53.352C62.472 58.856 58.44 63.016 53.256 65.832C48.136 68.648 42.216 70.056 35.496 70.056ZM112.001 70.056C106.945 70.056 102.241 69.192 97.8885 67.464C93.6005 65.672 89.8245 63.176 86.5605 59.976C83.3605 56.776 80.8645 53.064 79.0725 48.84C77.2805 44.552 76.3845 39.944 76.3845 35.016C76.3845 30.088 77.2805 25.512 79.0725 21.288C80.8645 17 83.3605 13.288 86.5605 10.152C89.7605 7.016 93.5045 4.584 97.7925 2.856C102.145 1.064 106.849 0.167999 111.905 0.167999C117.281 0.167999 122.049 1.032 126.208 2.75999C130.433 4.488 134.113 6.856 137.249 9.86399L127.169 20.04C125.377 18.12 123.201 16.616 120.641 15.528C118.145 14.44 115.233 13.896 111.905 13.896C108.961 13.896 106.241 14.408 103.745 15.432C101.313 16.392 99.2005 17.8 97.4085 19.656C95.6805 21.512 94.3045 23.752 93.2805 26.376C92.3205 29 91.8405 31.88 91.8405 35.016C91.8405 38.216 92.3205 41.128 93.2805 43.752C94.3045 46.376 95.6805 48.616 97.4085 50.472C99.2005 52.328 101.313 53.768 103.745 54.792C106.241 55.816 108.961 56.328 111.905 56.328C115.361 56.328 118.369 55.784 120.929 54.696C123.489 53.608 125.697 52.104 127.552 50.184L137.729 60.36C134.465 63.368 130.721 65.736 126.497 67.464C122.337 69.192 117.505 70.056 112.001 70.056Z" fill="url(#paint0_linear_2001_4)"/>
<defs>
<linearGradient id="paint0_linear_2001_4" x1="-3" y1="33.5" x2="140" y2="33.5" gradientUnits="userSpaceOnUse">
<stop stop-color="#0393A5"/>
<stop offset="0.46" stop-color="#29D44E"/>
<stop offset="1" stop-color="#087A88"/>
</linearGradient>
</defs>
</svg>
