<svg width="161" height="18" viewBox="0 0 161 18" fill="none" xmlns="http://www.w3.org/2000/svg">
<path d="M60.5147 17.472C59.2507 17.472 58.1227 17.216 57.1307 16.704C56.1547 16.176 55.3867 15.448 54.8267 14.52C54.2667 13.592 53.9867 12.544 53.9867 11.376C53.9867 10.208 54.2587 9.16803 54.8027 8.25603C55.3627 7.32803 56.1147 6.60003 57.0587 6.07203C58.0027 5.54403 59.0667 5.28003 60.2507 5.28003C61.4027 5.28003 62.4187 5.52803 63.2987 6.02403C64.1787 6.52003 64.8667 7.20803 65.3627 8.08803C65.8747 8.96803 66.1307 9.97603 66.1307 11.112C66.1307 11.32 66.1147 11.544 66.0827 11.784C66.0667 12.008 66.0267 12.272 65.9627 12.576L55.9067 12.6V10.08L64.4027 10.056L62.8187 11.112C62.8027 10.44 62.6987 9.88803 62.5067 9.45603C62.3147 9.00803 62.0267 8.67203 61.6427 8.44803C61.2747 8.20803 60.8187 8.08803 60.2747 8.08803C59.6987 8.08803 59.1947 8.22403 58.7627 8.49603C58.3467 8.75203 58.0187 9.12003 57.7787 9.60003C57.5547 10.08 57.4427 10.664 57.4427 11.352C57.4427 12.04 57.5627 12.632 57.8027 13.128C58.0587 13.608 58.4107 13.984 58.8587 14.256C59.3227 14.512 59.8667 14.64 60.4907 14.64C61.0667 14.64 61.5867 14.544 62.0507 14.352C62.5147 14.144 62.9227 13.84 63.2747 13.44L65.2907 15.456C64.7147 16.128 64.0187 16.632 63.2027 16.968C62.3867 17.304 61.4907 17.472 60.5147 17.472Z" fill="white"/>
<path d="M33.8015 17.208V5.54395H37.4735V17.208H33.8015ZM41.2655 17.208V10.392C41.2655 9.79996 41.0815 9.34396 40.7135 9.02396C40.3615 8.68796 39.9215 8.51995 39.3935 8.51995C39.0255 8.51995 38.6975 8.59995 38.4095 8.75995C38.1215 8.90395 37.8895 9.11196 37.7135 9.38396C37.5535 9.65596 37.4735 9.99196 37.4735 10.392L36.0575 9.76795C36.0575 8.83995 36.2575 8.04796 36.6575 7.39196C37.0575 6.71995 37.6015 6.20795 38.2895 5.85596C38.9775 5.48796 39.7535 5.30396 40.6175 5.30396C41.4335 5.30396 42.1615 5.48796 42.8015 5.85596C43.4575 6.22396 43.9775 6.73596 44.3615 7.39196C44.7455 8.04796 44.9375 8.83195 44.9375 9.74395V17.208H41.2655ZM48.7295 17.208V10.392C48.7295 9.79996 48.5455 9.34396 48.1775 9.02396C47.8255 8.68796 47.3855 8.51995 46.8575 8.51995C46.4895 8.51995 46.1615 8.59995 45.8735 8.75995C45.5855 8.90395 45.3535 9.11196 45.1775 9.38396C45.0175 9.65596 44.9375 9.99196 44.9375 10.392L42.8255 10.104C42.8575 9.11196 43.0895 8.26395 43.5215 7.55995C43.9695 6.83995 44.5535 6.28795 45.2735 5.90395C46.0095 5.50395 46.8335 5.30396 47.7455 5.30396C48.6415 5.30396 49.4335 5.49595 50.1215 5.87995C50.8255 6.24795 51.3775 6.78395 51.7775 7.48795C52.1935 8.17595 52.4015 9.00795 52.4015 9.98395V17.208H48.7295Z" fill="white"/>
<path d="M24.4001 17.448C23.3281 17.448 22.3681 17.184 21.5201 16.656C20.6881 16.128 20.0241 15.408 19.5281 14.496C19.0481 13.584 18.8081 12.544 18.8081 11.376C18.8081 10.208 19.0481 9.16795 19.5281 8.25595C20.0241 7.34396 20.6881 6.62396 21.5201 6.09595C22.3681 5.56796 23.3281 5.30396 24.4001 5.30396C25.1841 5.30396 25.8881 5.45595 26.5121 5.75995C27.1521 6.06395 27.6721 6.48795 28.0721 7.03195C28.4721 7.55995 28.6961 8.16795 28.7441 8.85596V13.896C28.6961 14.584 28.4721 15.2 28.0721 15.744C27.6881 16.272 27.1761 16.688 26.5361 16.992C25.8961 17.296 25.1841 17.448 24.4001 17.448ZM25.1441 14.136C25.9281 14.136 26.5601 13.88 27.0401 13.368C27.5201 12.84 27.7601 12.176 27.7601 11.376C27.7601 10.832 27.6481 10.352 27.4241 9.93596C27.2161 9.51996 26.9121 9.19995 26.5121 8.97596C26.1281 8.73596 25.6801 8.61596 25.1681 8.61596C24.6561 8.61596 24.2001 8.73596 23.8001 8.97596C23.4161 9.19995 23.1041 9.51996 22.8641 9.93596C22.6401 10.352 22.5281 10.832 22.5281 11.376C22.5281 11.904 22.6401 12.376 22.8641 12.792C23.0881 13.208 23.4001 13.536 23.8001 13.776C24.2001 14.016 24.6481 14.136 25.1441 14.136ZM27.6161 17.208V14.064L28.1681 11.232L27.6161 8.39995V5.54395H31.2161V17.208H27.6161Z" fill="white"/>
<path d="M153.731 17.208V0.719971H157.403V17.208H153.731ZM151.091 8.66397V5.54397H160.043V8.66397H151.091Z" fill="url(#paint0_linear_2006_2)"/>
<path d="M145.996 17.472C144.796 17.472 143.708 17.208 142.732 16.68C141.756 16.152 140.988 15.424 140.428 14.496C139.868 13.568 139.588 12.528 139.588 11.376C139.588 10.208 139.868 9.16803 140.428 8.25603C141.004 7.32803 141.78 6.60003 142.756 6.07203C143.732 5.54403 144.828 5.28003 146.044 5.28003C146.956 5.28003 147.788 5.44003 148.54 5.76003C149.308 6.06403 149.988 6.52803 150.58 7.15203L148.228 9.50403C147.956 9.20003 147.636 8.97603 147.268 8.83203C146.916 8.68803 146.508 8.61603 146.044 8.61603C145.516 8.61603 145.044 8.73603 144.628 8.97603C144.228 9.20003 143.908 9.52003 143.668 9.93603C143.444 10.336 143.332 10.808 143.332 11.352C143.332 11.896 143.444 12.376 143.668 12.792C143.908 13.208 144.236 13.536 144.652 13.776C145.068 14.016 145.532 14.136 146.044 14.136C146.524 14.136 146.948 14.056 147.316 13.896C147.7 13.72 148.028 13.48 148.3 13.176L150.628 15.528C150.02 16.168 149.332 16.656 148.564 16.992C147.796 17.312 146.94 17.472 145.996 17.472Z" fill="url(#paint1_linear_2006_2)"/>
<path d="M132.968 17.472C131.704 17.472 130.576 17.216 129.584 16.704C128.608 16.176 127.84 15.448 127.28 14.52C126.72 13.592 126.44 12.544 126.44 11.376C126.44 10.208 126.712 9.16803 127.256 8.25603C127.816 7.32803 128.568 6.60003 129.512 6.07203C130.456 5.54403 131.52 5.28003 132.704 5.28003C133.856 5.28003 134.872 5.52803 135.752 6.02403C136.632 6.52003 137.32 7.20803 137.816 8.08803C138.328 8.96803 138.584 9.97603 138.584 11.112C138.584 11.32 138.568 11.544 138.536 11.784C138.52 12.008 138.48 12.272 138.416 12.576L128.36 12.6V10.08L136.856 10.056L135.272 11.112C135.256 10.44 135.152 9.88803 134.96 9.45603C134.768 9.00803 134.48 8.67203 134.096 8.44803C133.728 8.20803 133.272 8.08803 132.728 8.08803C132.152 8.08803 131.648 8.22403 131.216 8.49603C130.8 8.75203 130.472 9.12003 130.232 9.60003C130.008 10.08 129.896 10.664 129.896 11.352C129.896 12.04 130.016 12.632 130.256 13.128C130.512 13.608 130.864 13.984 131.312 14.256C131.776 14.512 132.32 14.64 132.944 14.64C133.52 14.64 134.04 14.544 134.504 14.352C134.968 14.144 135.376 13.84 135.728 13.44L137.744 15.456C137.168 16.128 136.472 16.632 135.656 16.968C134.84 17.304 133.944 17.472 132.968 17.472Z" fill="url(#paint2_linear_2006_2)"/>
<path d="M121.177 17.208V10.56C121.177 9.95195 120.985 9.46395 120.601 9.09595C120.233 8.71196 119.761 8.51995 119.185 8.51995C118.785 8.51995 118.433 8.60796 118.129 8.78396C117.825 8.94396 117.585 9.18395 117.409 9.50395C117.233 9.80795 117.145 10.16 117.145 10.56L115.729 9.86396C115.729 8.95196 115.929 8.15196 116.329 7.46395C116.729 6.77595 117.281 6.24795 117.985 5.87995C118.705 5.49595 119.513 5.30396 120.409 5.30396C121.273 5.30396 122.033 5.51195 122.689 5.92795C123.361 6.32795 123.889 6.86395 124.273 7.53595C124.657 8.20795 124.849 8.94395 124.849 9.74395V17.208H121.177ZM113.473 17.208V5.54395H117.145V17.208H113.473Z" fill="url(#paint3_linear_2006_2)"/>
<path d="M107.443 17.208V10.56C107.443 9.95195 107.251 9.46395 106.867 9.09595C106.499 8.71196 106.027 8.51995 105.451 8.51995C105.051 8.51995 104.699 8.60796 104.395 8.78396C104.091 8.94396 103.851 9.18395 103.675 9.50395C103.499 9.80795 103.411 10.16 103.411 10.56L101.995 9.86396C101.995 8.95196 102.195 8.15196 102.595 7.46395C102.995 6.77595 103.547 6.24795 104.251 5.87995C104.971 5.49595 105.779 5.30396 106.675 5.30396C107.539 5.30396 108.299 5.51195 108.955 5.92795C109.627 6.32795 110.155 6.86395 110.539 7.53595C110.923 8.20795 111.115 8.94395 111.115 9.74395V17.208H107.443ZM99.7389 17.208V5.54395H103.411V17.208H99.7389Z" fill="url(#paint4_linear_2006_2)"/>
<path d="M91.5268 17.472C90.3268 17.472 89.2388 17.208 88.2628 16.68C87.3028 16.136 86.5428 15.4 85.9828 14.472C85.4228 13.544 85.1428 12.504 85.1428 11.352C85.1428 10.2 85.4228 9.16803 85.9828 8.25603C86.5428 7.34403 87.3028 6.62403 88.2628 6.09603C89.2228 5.55203 90.3108 5.28003 91.5268 5.28003C92.7428 5.28003 93.8308 5.54403 94.7908 6.07203C95.7508 6.60003 96.5108 7.32803 97.0708 8.25603C97.6308 9.16803 97.9108 10.2 97.9108 11.352C97.9108 12.504 97.6308 13.544 97.0708 14.472C96.5108 15.4 95.7508 16.136 94.7908 16.68C93.8308 17.208 92.7428 17.472 91.5268 17.472ZM91.5268 14.136C92.0548 14.136 92.5188 14.024 92.9188 13.8C93.3188 13.56 93.6228 13.232 93.8308 12.816C94.0548 12.384 94.1668 11.896 94.1668 11.352C94.1668 10.808 94.0548 10.336 93.8308 9.93603C93.6068 9.52003 93.2948 9.20003 92.8948 8.97603C92.5108 8.73603 92.0548 8.61603 91.5268 8.61603C91.0148 8.61603 90.5588 8.73603 90.1588 8.97603C89.7588 9.20003 89.4468 9.52003 89.2228 9.93603C88.9988 10.352 88.8868 10.832 88.8868 11.376C88.8868 11.904 88.9988 12.384 89.2228 12.816C89.4468 13.232 89.7588 13.56 90.1588 13.8C90.5588 14.024 91.0148 14.136 91.5268 14.136Z" fill="url(#paint5_linear_2006_2)"/>
<path d="M78.0212 17.472C76.7572 17.472 75.5812 17.256 74.4932 16.824C73.4212 16.376 72.4772 15.752 71.6612 14.952C70.8612 14.152 70.2372 13.224 69.7892 12.168C69.3412 11.096 69.1172 9.944 69.1172 8.712C69.1172 7.48 69.3412 6.336 69.7892 5.28C70.2372 4.208 70.8612 3.28 71.6612 2.496C72.4612 1.712 73.3972 1.104 74.4692 0.672C75.5572 0.224 76.7332 0 77.9972 0C79.3412 0 80.5332 0.216 81.5732 0.647999C82.6292 1.08 83.5492 1.672 84.3332 2.424L81.8132 4.968C81.3652 4.488 80.8212 4.112 80.1812 3.84C79.5572 3.568 78.8292 3.432 77.9972 3.432C77.2612 3.432 76.5812 3.56 75.9572 3.816C75.3492 4.056 74.8212 4.408 74.3732 4.872C73.9412 5.336 73.5972 5.896 73.3412 6.552C73.1012 7.208 72.9812 7.928 72.9812 8.712C72.9812 9.512 73.1012 10.24 73.3412 10.896C73.5972 11.552 73.9412 12.112 74.3732 12.576C74.8212 13.04 75.3492 13.4 75.9572 13.656C76.5812 13.912 77.2612 14.04 77.9972 14.04C78.8612 14.04 79.6132 13.904 80.2532 13.632C80.8932 13.36 81.4452 12.984 81.9092 12.504L84.4532 15.048C83.6372 15.8 82.7012 16.392 81.6452 16.824C80.6052 17.256 79.3972 17.472 78.0212 17.472Z" fill="url(#paint6_linear_2006_2)"/>
<path d="M8.856 17.472C7.624 17.472 6.464 17.248 5.376 16.8C4.304 16.352 3.368 15.736 2.568 14.952C1.768 14.152 1.136 13.224 0.672 12.168C0.224 11.096 0 9.944 0 8.712C0 7.48 0.232 6.336 0.696 5.28C1.16 4.224 1.8 3.304 2.616 2.52C3.448 1.72 4.416 1.104 5.52 0.672C6.624 0.224 7.808 0 9.072 0C10.528 0 11.848 0.264 13.032 0.792C14.232 1.32 15.224 2.048 16.008 2.976L13.44 5.544C12.896 4.84 12.256 4.312 11.52 3.96C10.784 3.608 9.952 3.432 9.024 3.432C8.032 3.432 7.144 3.656 6.36 4.104C5.576 4.536 4.96 5.152 4.512 5.952C4.08 6.736 3.864 7.656 3.864 8.712C3.864 9.768 4.08 10.696 4.512 11.496C4.944 12.296 5.536 12.92 6.288 13.368C7.04 13.816 7.904 14.04 8.88 14.04C9.872 14.04 10.712 13.856 11.4 13.488C12.104 13.104 12.64 12.56 13.008 11.856C13.392 11.136 13.584 10.264 13.584 9.24L16.08 10.92L8.52 10.8V7.608H17.424V8.16C17.424 10.192 17.056 11.904 16.32 13.296C15.6 14.672 14.592 15.712 13.296 16.416C12.016 17.12 10.536 17.472 8.856 17.472Z" fill="url(#paint7_linear_2006_2)"/>
<defs>
<linearGradient id="paint0_linear_2006_2" x1="-0.768053" y1="8.20797" x2="161.232" y2="8.20797" gradientUnits="userSpaceOnUse">
<stop stop-color="#0393A5"/>
<stop offset="0.46" stop-color="#29D44E"/>
<stop offset="1" stop-color="#087A88"/>
</linearGradient>
<linearGradient id="paint1_linear_2006_2" x1="-0.767991" y1="8.20803" x2="161.232" y2="8.20803" gradientUnits="userSpaceOnUse">
<stop stop-color="#0393A5"/>
<stop offset="0.46" stop-color="#29D44E"/>
<stop offset="1" stop-color="#087A88"/>
</linearGradient>
<linearGradient id="paint2_linear_2006_2" x1="-0.767997" y1="8.20803" x2="161.232" y2="8.20803" gradientUnits="userSpaceOnUse">
<stop stop-color="#0393A5"/>
<stop offset="0.46" stop-color="#29D44E"/>
<stop offset="1" stop-color="#087A88"/>
</linearGradient>
<linearGradient id="paint3_linear_2006_2" x1="-0.768041" y1="8.20796" x2="161.232" y2="8.20796" gradientUnits="userSpaceOnUse">
<stop stop-color="#0393A5"/>
<stop offset="0.46" stop-color="#29D44E"/>
<stop offset="1" stop-color="#087A88"/>
</linearGradient>
<linearGradient id="paint4_linear_2006_2" x1="-0.768041" y1="8.20796" x2="161.232" y2="8.20796" gradientUnits="userSpaceOnUse">
<stop stop-color="#0393A5"/>
<stop offset="0.46" stop-color="#29D44E"/>
<stop offset="1" stop-color="#087A88"/>
</linearGradient>
<linearGradient id="paint5_linear_2006_2" x1="-0.767988" y1="8.20803" x2="161.232" y2="8.20803" gradientUnits="userSpaceOnUse">
<stop stop-color="#0393A5"/>
<stop offset="0.46" stop-color="#29D44E"/>
<stop offset="1" stop-color="#087A88"/>
</linearGradient>
<linearGradient id="paint6_linear_2006_2" x1="-0.768" y1="8.208" x2="161.232" y2="8.208" gradientUnits="userSpaceOnUse">
<stop stop-color="#0393A5"/>
<stop offset="0.46" stop-color="#29D44E"/>
<stop offset="1" stop-color="#087A88"/>
</linearGradient>
<linearGradient id="paint7_linear_2006_2" x1="-0.768" y1="8.208" x2="161.232" y2="8.208" gradientUnits="userSpaceOnUse">
<stop stop-color="#0393A5"/>
<stop offset="0.46" stop-color="#29D44E"/>
<stop offset="1" stop-color="#087A88"/>
</linearGradient>
</defs>
</svg>
